<svg width="501" height="525" viewBox="0 0 501 525" fill="none" xmlns="http://www.w3.org/2000/svg">
<rect y="24" width="501" height="501" rx="120" fill="#35F053"/>
<path d="M202.28 266.441C203.13 265.546 204.149 264.827 205.279 264.322C206.409 263.818 207.628 263.54 208.867 263.503C210.106 263.466 211.34 263.671 212.499 264.107C213.658 264.543 214.718 265.201 215.621 266.043C259.045 306.595 302.617 331.267 353.892 343.843C360.81 325.134 361.423 304.543 355.449 284.454C347.522 257.8 329.063 234.578 302.081 217.301C277.995 201.878 253.92 197.861 230.63 193.979C201.248 189.08 173.493 184.449 147.007 156.649C144.058 153.574 140.042 152.34 136.202 153.34C131.814 154.509 128.872 157.947 127.462 163.63C124.159 176.931 126.282 214.208 135.571 253.561C150.487 316.785 174.29 348.778 191.635 364.487C214.046 384.769 243.31 396 272.392 396C277.873 396.009 283.348 395.61 288.77 394.807C313.369 391.112 333.846 378.864 345.387 361.044C292.609 347.433 247.521 321.55 202.663 279.683C201.76 278.84 201.033 277.828 200.524 276.705C200.015 275.582 199.735 274.371 199.7 273.141C199.664 271.911 199.874 270.686 200.316 269.536C200.759 268.386 201.427 267.335 202.28 266.441ZM382.797 349.573C372.871 348.058 363.257 346.158 353.898 343.861C351.974 349.068 349.579 354.093 346.744 358.874C346.313 359.605 345.853 360.33 345.387 361.044C356.771 363.965 368.305 366.307 379.93 368.059C381.167 368.275 382.435 368.243 383.66 367.967C384.885 367.69 386.041 367.174 387.062 366.449C388.083 365.723 388.947 364.803 389.604 363.742C390.262 362.681 390.699 361.501 390.89 360.27C391.081 359.04 391.023 357.783 390.718 356.576C390.413 355.368 389.868 354.232 389.115 353.236C388.361 352.24 387.415 351.402 386.331 350.773C385.247 350.144 384.042 349.736 382.797 349.573Z" fill="white"/>
</svg>
